<svg xmlns="http://www.w3.org/2000/svg" xmlns:xlink="http://www.w3.org/1999/xlink" width="500" zoomAndPan="magnify" viewBox="0 0 375 374.999991" height="500" preserveAspectRatio="xMidYMid meet" version="1.0"><defs><clipPath id="7089f646a0"><path d="M 82.628906 82.628906 L 292.628906 82.628906 L 292.628906 292.628906 L 82.628906 292.628906 Z M 82.628906 82.628906 " clip-rule="nonzero"/></clipPath></defs><path fill="#fcb63a" d="M 290.453125 187.644531 C 290.453125 244.425781 244.425781 290.453125 187.644531 290.453125 C 130.863281 290.453125 84.835938 244.425781 84.835938 187.644531 C 84.835938 130.863281 130.863281 84.835938 187.644531 84.835938 C 244.425781 84.835938 290.453125 130.863281 290.453125 187.644531 Z M 290.453125 187.644531 C 290.453125 244.425781 244.425781 290.453125 187.644531 290.453125 C 130.863281 290.453125 84.835938 244.425781 84.835938 187.644531 C 84.835938 130.863281 130.863281 84.835938 187.644531 84.835938 C 244.425781 84.835938 290.453125 130.863281 290.453125 187.644531 Z M 290.453125 187.644531 " fill-opacity="1" fill-rule="nonzero"/><path fill="#be1e2d" d="M 149.796875 236.160156 C 133.03125 227.285156 134.511719 205.257812 134.511719 205.257812 C 134.511719 205.257812 181.847656 205.09375 197.300781 205.257812 C 197.792969 225.640625 187.003906 234.394531 184.480469 235.335938 C 164.261719 242.898438 155.386719 239.609375 149.796875 236.160156 Z M 149.796875 236.160156 C 133.03125 227.285156 134.511719 205.257812 134.511719 205.257812 C 134.511719 205.257812 181.847656 205.09375 197.300781 205.257812 C 197.792969 225.640625 187.003906 234.394531 184.480469 235.335938 C 164.261719 242.898438 155.386719 239.609375 149.796875 236.160156 Z M 149.796875 236.160156 " fill-opacity="1" fill-rule="nonzero"/><path fill="#000000" d="M 197.300781 205.257812 C 197.300781 205.257812 199.355469 209.203125 195.902344 210.929688 C 160.890625 206.984375 148.8125 227.941406 146.347656 233.859375 C 131.554688 222.269531 134.511719 205.257812 134.511719 205.257812 Z M 197.300781 205.257812 C 197.300781 205.257812 199.355469 209.203125 195.902344 210.929688 C 160.890625 206.984375 148.8125 227.941406 146.347656 233.859375 C 131.554688 222.269531 134.511719 205.257812 134.511719 205.257812 Z M 197.300781 205.257812 " fill-opacity="0.7" fill-rule="nonzero"/><path fill="#be1e2d" d="M 168.773438 252.714844 C 164.085938 252.714844 159.363281 252.070312 158.582031 251.957031 C 157.375 251.785156 156.539062 250.667969 156.710938 249.464844 C 156.882812 248.257812 157.996094 247.414062 159.203125 247.589844 C 162.261719 248.027344 170.996094 248.894531 174.632812 247.683594 C 175.785156 247.296875 177.035156 247.921875 177.421875 249.078125 C 177.804688 250.234375 177.183594 251.480469 176.027344 251.867188 C 174.113281 252.503906 171.449219 252.714844 168.773438 252.714844 Z M 168.773438 252.714844 C 164.085938 252.714844 159.363281 252.070312 158.582031 251.957031 C 157.375 251.785156 156.539062 250.667969 156.710938 249.464844 C 156.882812 248.257812 157.996094 247.414062 159.203125 247.589844 C 162.261719 248.027344 170.996094 248.894531 174.632812 247.683594 C 175.785156 247.296875 177.035156 247.921875 177.421875 249.078125 C 177.804688 250.234375 177.183594 251.480469 176.027344 251.867188 C 174.113281 252.503906 171.449219 252.714844 168.773438 252.714844 Z M 168.773438 252.714844 " fill-opacity="0.3" fill-rule="nonzero"/><path fill="#25a9e0" d="M 254.550781 209.585938 C 233.84375 209.585938 253.894531 171.453125 253.894531 171.453125 C 259.15625 176.222656 272.46875 210.082031 254.550781 209.585938 Z M 254.550781 209.585938 C 233.84375 209.585938 253.894531 171.453125 253.894531 171.453125 C 259.15625 176.222656 272.46875 210.082031 254.550781 209.585938 Z M 254.550781 209.585938 " fill-opacity="1" fill-rule="nonzero"/><g clip-path="url(#7089f646a0)"><path fill="#000000" d="M 254.554688 211.792969 C 249.5 211.792969 246.933594 209.386719 245.667969 207.371094 C 239.144531 196.96875 251.175781 171.402344 252.566406 168.523438 C 252.9375 167.761719 253.707031 167.277344 254.554688 167.277344 C 255.398438 167.277344 256.167969 167.761719 256.539062 168.523438 C 257.929688 171.402344 269.960938 196.96875 263.4375 207.371094 C 262.171875 209.386719 259.601562 211.792969 254.554688 211.792969 Z M 254.554688 174.871094 C 250.757812 183.890625 245.6875 199.097656 249.40625 205.027344 C 250.039062 206.039062 251.261719 207.382812 254.554688 207.382812 C 257.84375 207.382812 259.066406 206.039062 259.699219 205.03125 C 263.417969 199.097656 258.347656 183.890625 254.554688 174.871094 Z M 132.679688 133.726562 C 132.40625 133.726562 132.234375 133.71875 132.179688 133.71875 C 130.964844 133.671875 130.015625 132.644531 130.0625 131.429688 C 130.109375 130.214844 131.140625 129.265625 132.347656 129.308594 C 132.515625 129.316406 144.15625 129.609375 150.25 121.777344 C 150.996094 120.816406 152.382812 120.644531 153.34375 121.390625 C 154.304688 122.136719 154.476562 123.523438 153.730469 124.484375 C 146.933594 133.222656 135.261719 133.726562 132.679688 133.726562 Z M 196.941406 133.726562 C 194.359375 133.726562 182.6875 133.222656 175.890625 124.484375 C 175.140625 123.523438 175.316406 122.136719 176.277344 121.390625 C 177.238281 120.644531 178.625 120.816406 179.371094 121.777344 C 185.507812 129.667969 197.160156 129.320312 197.269531 129.308594 C 198.5 129.28125 199.511719 130.210938 199.558594 131.429688 C 199.605469 132.644531 198.65625 133.671875 197.4375 133.71875 C 197.382812 133.71875 197.214844 133.726562 196.941406 133.726562 Z M 160.863281 192.070312 C 159.648438 192.070312 158.660156 191.082031 158.660156 189.863281 L 158.660156 178.523438 C 158.660156 177.304688 159.648438 176.316406 160.863281 176.316406 C 162.082031 176.316406 163.070312 177.304688 163.070312 178.523438 L 163.070312 189.863281 C 163.070312 191.082031 162.082031 192.070312 160.863281 192.070312 Z M 111.136719 189.4375 C 109.972656 189.4375 109 188.53125 108.9375 187.355469 C 108.910156 186.851562 108.332031 175.011719 114.5 168.496094 C 117.125 165.722656 120.53125 164.320312 124.621094 164.320312 C 128.863281 164.320312 132.394531 165.742188 135.113281 168.554688 C 141.109375 174.75 140.828125 185.519531 140.8125 185.976562 C 140.773438 187.195312 139.765625 188.140625 138.535156 188.109375 C 137.320312 188.070312 136.363281 187.050781 136.40625 185.832031 C 136.410156 185.664062 136.609375 176.429688 131.933594 171.609375 C 130.050781 169.671875 127.660156 168.730469 124.621094 168.730469 C 121.75 168.730469 119.484375 169.644531 117.703125 171.527344 C 113.65625 175.800781 113.179688 184.226562 113.339844 187.113281 C 113.40625 188.328125 112.476562 189.367188 111.257812 189.4375 C 111.21875 189.4375 111.175781 189.4375 111.136719 189.4375 Z M 214.449219 189.4375 C 214.40625 189.4375 214.359375 189.4375 214.316406 189.433594 C 213.101562 189.363281 212.171875 188.316406 212.246094 187.101562 C 212.25 187.007812 212.742188 177.402344 207.863281 172.234375 C 205.792969 170.042969 203.078125 168.976562 199.574219 168.976562 C 195.875 168.976562 193.019531 170.070312 190.839844 172.324219 C 186.152344 177.171875 186.390625 185.738281 186.394531 185.824219 C 186.4375 187.039062 185.484375 188.0625 184.269531 188.105469 C 183.050781 188.167969 182.03125 187.203125 181.988281 185.988281 C 181.96875 185.5625 181.664062 175.496094 187.648438 169.277344 C 190.660156 166.152344 194.671875 164.566406 199.574219 164.566406 C 204.300781 164.566406 208.171875 166.132812 211.085938 169.222656 C 217.269531 175.789062 216.675781 186.894531 216.648438 187.367188 C 216.578125 188.535156 215.605469 189.4375 214.449219 189.4375 Z M 146.34375 235.898438 C 146.03125 235.898438 145.710938 235.832031 145.410156 235.691406 C 144.308594 235.171875 143.832031 233.859375 144.351562 232.757812 C 150 220.710938 160.785156 212.753906 175.542969 209.746094 C 186.523438 207.503906 195.742188 208.773438 196.128906 208.828125 C 197.335938 209 198.175781 210.117188 198.003906 211.324219 C 197.832031 212.527344 196.722656 213.375 195.507812 213.195312 C 195.164062 213.148438 160.550781 208.601562 148.34375 234.628906 C 147.96875 235.429688 147.171875 235.898438 146.34375 235.898438 Z M 166.070312 242.308594 C 156.3125 242.308594 148.421875 239.296875 142.617188 233.351562 C 132.023438 222.507812 132.289062 205.90625 132.308594 205.207031 C 132.335938 204.007812 133.3125 203.054688 134.511719 203.054688 L 197.300781 203.054688 C 198.4375 203.054688 199.386719 203.917969 199.496094 205.050781 C 199.558594 205.730469 200.945312 221.777344 191.007812 232.695312 C 185.203125 239.074219 176.8125 242.308594 166.070312 242.308594 Z M 136.792969 207.464844 C 137.09375 212.042969 138.582031 222.925781 145.792969 230.292969 C 150.734375 235.339844 157.554688 237.898438 166.070312 237.898438 C 175.507812 237.898438 182.792969 235.15625 187.726562 229.75 C 194.453125 222.378906 195.183594 211.824219 195.171875 207.464844 Z M 187.644531 292.660156 C 129.738281 292.660156 82.628906 245.550781 82.628906 187.644531 C 82.628906 129.738281 129.738281 82.628906 187.644531 82.628906 C 245.550781 82.628906 292.660156 129.738281 292.660156 187.644531 C 292.660156 245.550781 245.550781 292.660156 187.644531 292.660156 Z M 187.644531 87.039062 C 132.171875 87.039062 87.039062 132.171875 87.039062 187.644531 C 87.039062 243.117188 132.171875 288.25 187.644531 288.25 C 243.117188 288.25 288.25 243.117188 288.25 187.644531 C 288.25 132.171875 243.117188 87.039062 187.644531 87.039062 Z M 187.644531 87.039062 " fill-opacity="1" fill-rule="nonzero"/></g></svg>